<?xml version="1.0" standalone="no"?>
<!DOCTYPE svg PUBLIC "-//W3C//DTD SVG 20010904//EN"
 "http://www.w3.org/TR/2001/REC-SVG-20010904/DTD/svg10.dtd">
<svg version="1.0" xmlns="http://www.w3.org/2000/svg"
 width="64.000000pt" height="64.000000pt" viewBox="0 0 64.000000 64.000000"
 preserveAspectRatio="xMidYMid meet">

<g transform="translate(0.000000,64.000000) scale(0.100000,-0.100000)"
fill="#000000" stroke="none">
<path d="M114 596 c-3 -20 -4 -43 0 -51 3 -8 -3 -30 -14 -48 -24 -38 -26 -112
-6 -161 17 -42 58 -74 112 -87 40 -10 42 -12 32 -35 -11 -23 -24 -29 -61 -26
-25 3 -68 37 -59 47 4 5 1 5 -5 1 -7 -4 -13 -3 -13 1 0 5 -9 9 -21 10 -19 2
-19 0 5 -22 14 -13 26 -29 26 -35 0 -23 41 -50 77 -50 l38 0 -2 -42 c0 -23 -6
-44 -12 -46 -18 -6 -13 -22 7 -22 31 0 42 22 42 87 0 40 4 63 11 63 12 0 8
-122 -6 -152 -9 -22 8 -24 29 -2 12 11 16 36 16 90 0 43 4 74 10 74 6 0 10
-31 10 -73 0 -59 4 -77 18 -90 10 -10 21 -17 25 -17 5 0 3 53 -8 137 -2 18 0
33 6 33 5 0 9 -28 9 -63 0 -36 5 -68 12 -75 15 -15 48 -16 48 -2 0 6 -4 10
-10 10 -6 0 -10 29 -10 68 0 37 -6 79 -14 93 -13 25 -12 26 30 37 24 7 58 25
76 41 30 27 33 34 36 105 4 63 1 82 -16 110 -11 19 -18 43 -16 53 3 10 1 31
-5 45 -9 24 -13 26 -40 18 -17 -5 -36 -12 -43 -16 -21 -13 -210 -12 -238 1
-61 30 -68 29 -76 -9z m356 -176 c28 -28 34 -62 17 -102 -21 -49 -62 -61 -189
-56 -98 4 -101 4 -129 36 -35 39 -37 79 -8 116 20 26 22 26 155 26 120 0 136
-2 154 -20z"/>
<path d="M204 375 c-9 -21 3 -45 21 -45 10 0 15 10 15 30 0 32 -26 43 -36 15z"/>
<path d="M404 376 c-9 -22 2 -46 21 -46 12 0 15 8 13 27 -3 30 -25 42 -34 19z"/>
</g>
</svg>
